<mxfile host="app.diagrams.net" modified="2023-06-01T18:33:57.317Z" agent="Mozilla/5.0 (X11; Linux x86_64) AppleWebKit/537.36 (KHTML, like Gecko) Chrome/112.0.0.0 Safari/537.36" etag="s1yRuKsVHCPBuWxLr3dv" version="21.2.9" type="github">
  <diagram name="第 1 页" id="hESRQthUAqDP4pHFu_q5">
    <mxGraphModel dx="1004" dy="586" grid="1" gridSize="10" guides="1" tooltips="1" connect="1" arrows="1" fold="1" page="1" pageScale="1" pageWidth="827" pageHeight="1169" math="0" shadow="0">
      <root>
        <mxCell id="0" />
        <mxCell id="1" parent="0" />
        <mxCell id="KRbH5QjJdrwvxZO4buaG-1" value="控制系统" style="shape=image;verticalLabelPosition=bottom;labelBackgroundColor=#ffffff;verticalAlign=top;aspect=fixed;imageAspect=0;image=data:image/svg+xml,PHN2ZyB4bWxuczpjYz0iaHR0cDovL2NyZWF0aXZlY29tbW9ucy5vcmcvbnMjIiB4bWxuczpkYz0iaHR0cDovL3B1cmwub3JnL2RjL2VsZW1lbnRzLzEuMS8iIHhtbG5zOmlua3NjYXBlPSJodHRwOi8vd3d3Lmlua3NjYXBlLm9yZy9uYW1lc3BhY2VzL2lua3NjYXBlIiB4bWxuczpyZGY9Imh0dHA6Ly93d3cudzMub3JnLzE5OTkvMDIvMjItcmRmLXN5bnRheC1ucyMiIHhtbG5zOnNvZGlwb2RpPSJodHRwOi8vc29kaXBvZGkuc291cmNlZm9yZ2UubmV0L0RURC9zb2RpcG9kaS0wLmR0ZCIgeG1sbnM6c3ZnPSJodHRwOi8vd3d3LnczLm9yZy8yMDAwL3N2ZyIgeG1sbnM9Imh0dHA6Ly93d3cudzMub3JnLzIwMDAvc3ZnIiB4bWxuczp4bGluaz0iaHR0cDovL3d3dy53My5vcmcvMTk5OS94bGluayIgdmVyc2lvbj0iMS4xIiBpZD0ic3ZnODA1NTEiIGlua3NjYXBlOnZlcnNpb249IjAuOTIuMyAoMjQwNTU0NiwgMjAxOC0wMy0xMSkiIHNvZGlwb2RpOmRvY25hbWU9ImRldm9wcy5zdmciIHg9IjBweCIgeT0iMHB4IiB2aWV3Qm94PSIwIDAgNzIuNDQgNDkuNCIgc3R5bGU9ImVuYWJsZS1iYWNrZ3JvdW5kOm5ldyAwIDAgNzIuNDQgNDkuNDsiIHhtbDpzcGFjZT0icHJlc2VydmUiPiYjeGE7PHNvZGlwb2RpOm5hbWVkdmlldyBib3JkZXJjb2xvcj0iIzY2NjY2NiIgYm9yZGVyb3BhY2l0eT0iMSIgZml0LW1hcmdpbi1ib3R0b209IjAiIGZpdC1tYXJnaW4tbGVmdD0iMCIgZml0LW1hcmdpbi1yaWdodD0iMCIgZml0LW1hcmdpbi10b3A9IjAiIGdyaWR0b2xlcmFuY2U9IjEwIiBndWlkZXRvbGVyYW5jZT0iMTAiIGlkPSJuYW1lZHZpZXc4MDU1MyIgaW5rc2NhcGU6Y3VycmVudC1sYXllcj0ic3ZnODA1NTEiIGlua3NjYXBlOmN4PSI0OC4yOTQ5OTciIGlua3NjYXBlOmN5PSIzMi45MzQ3ODUiIGlua3NjYXBlOnBhZ2VvcGFjaXR5PSIwIiBpbmtzY2FwZTpwYWdlc2hhZG93PSIyIiBpbmtzY2FwZTp3aW5kb3ctaGVpZ2h0PSIxMDE3IiBpbmtzY2FwZTp3aW5kb3ctbWF4aW1pemVkPSIxIiBpbmtzY2FwZTp3aW5kb3ctd2lkdGg9IjE5MjAiIGlua3NjYXBlOndpbmRvdy14PSItOCIgaW5rc2NhcGU6d2luZG93LXk9Ii04IiBpbmtzY2FwZTp6b29tPSIxMi43NzU1OTkiIG9iamVjdHRvbGVyYW5jZT0iMTAiIHBhZ2Vjb2xvcj0iI2ZmZmZmZiIgc2hvd2dyaWQ9ImZhbHNlIj4mI3hhOwk8L3NvZGlwb2RpOm5hbWVkdmlldz4mI3hhOzxnIGlkPSJnODA1NDkiIHRyYW5zZm9ybT0idHJhbnNsYXRlKC0wLjc1MDAzMzUxLC0wLjc1MTA1NzM3KSI+JiN4YTsJPHRpdGxlIGlkPSJ0aXRsZTgwNTI1Ij5QYWdlLTE8L3RpdGxlPiYjeGE7CTxnIGlkPSJncm91cDUzNjQtMSIgdHJhbnNmb3JtPSJ0cmFuc2xhdGUoMC43NTAxMTUsLTAuNzUpIj4mI3hhOwkJPHRpdGxlIGlkPSJ0aXRsZTgwNTI3Ij5EZXZPcHM8L3RpdGxlPiYjeGE7CQk8ZyBpZD0ic2hhcGU1MzY1LTIiIHRyYW5zZm9ybT0idHJhbnNsYXRlKDQ0Ljc5NzUsLTI5LjgzNSkiPiYjeGE7CQkJPHRpdGxlIGlkPSJ0aXRsZTgwNTI5Ij5wYXRoODk4MTwvdGl0bGU+JiN4YTsJCQk8cGF0aCBpZD0icGF0aDgwNTMxIiBpbmtzY2FwZTpjb25uZWN0b3ItY3VydmF0dXJlPSIwIiBzdHlsZT0iZmlsbDojQUFEMkYyOyIgZD0iTTEzLjcxLDMzLjM1Yy0wLjIsMC4yMy0wLjUzLDAuMy0wLjgxLDAuMTcgICAgIGMtMC4xMSwwLjEtMC4yOS0wLjMxLTAuMzgtMC42MWwtMC4zMy0xLjIyYy0wLjE4LTAuNC0wLjU4LTAuNDItMC43LTAuMTJsLTAuOTQsMC44N2MtMC4yMiwwLjM5LDAuMiwwLDAsMGwtMS4zLDAuMDRsLTAuODYtMC45NCAgICAgYy0wLjI4LTAuMzEtMC41OS0wLjIyLTAuNywwLjA3bC0wLjU3LDEuMjhjLTAuMTEsMC4yNy0wLjI1LDAuNTItMC40MywwLjc1Yy0wLjIzLTAuMS0wLjQ2LTAuMjEtMC42OC0wLjMzbC0xLjE5LTAuNDYgICAgIGMtMC4zOS0wLjIyLTAuNiwwLTAuNjEsMC4zN2wwLjAzLDEuMzFjMC4wNCwwLjI4LTAuMDQsMC41Ny0wLjIzLDAuNzljLTAuMjMsMC4wNS0wLjQ2LDAuMDgtMC43LDAuMDZsLTEuMi0wLjA1ICAgICBjLTAuNCwwLTAuNjEsMC4xNy0wLjQzLDAuNTlsMC41NSwxLjIyYzAuMDksMC4zMSwwLjE2LDAuODEsMC4xNiwwLjgxYy0wLjIzLDAuMTMtMC40OSwwLjIyLTAuNzUsMC4yN2wtMS4yMiwwLjU1ICAgICBDMC4xMSwzOC44NSwwLDM5LjE0LDAuMjgsMzkuNDVsMC45NiwwLjg1YzAuMTgsMC4yNCwwLjM0LDAuNDksMC40NywwLjc1Yy0wLjE2LDAuMjQtMC4zMywwLjQ3LTAuNTMsMC42OGwtMC45NCwwLjg1ICAgICBjLTAuMjEsMC4xOS0wLjEyLDAuNSwwLjE3LDAuNjFsMS4xOCwwLjQ2YzAuMjksMC4xMSwwLjY4LDAuMzMsMC42NywwLjUzYy0wLjAxLDAuMjQtMC4wNiwwLjQ3LTAuMTMsMC43bC0wLjY1LDEuMTcgICAgIGMtMC4xMiwwLjI5LDAuMDcsMC41LDAuMzcsMC42MWwxLjMxLTAuMDRjMC4zLTAuMDIsMC42MSwwLjAzLDAuODksMC4xNWMwLjE0LDAuMjEsMC4xNiwwLjQ3LDAuMDcsMC43MWwtMC4wNiwxLjQgICAgIGMwLDAuNCwwLjI3LDAuNTEsMC41NywwLjQzbDEuMTQtMC42NWMwLjI3LTAuMTYsMC42MS0wLjE4LDAuOS0wLjA2YzAuMTEtMC4xLDAuMTksMC4yMSwwLjM4LDAuNjFsMC4zNCwxLjIyICAgICBjMC4xOCwwLjQsMC40OSwwLjMyLDAuNywwLjEzbDAuOTYtMC44N2MwLjE3LTAuMzEsMC40OC0wLjUyLDAuODMtMC41NmwwLjQ4LDAuNTNsMC44NSwwLjkzYzAuMjksMC4zMiwwLjU5LDAuMjMsMC43MS0wLjA2ICAgICBsMC40Ni0xLjM4YzAuMTMtMC4yNiwwLjMxLTAuNDksMC41My0wLjY4YzAuMjQsMC4wOSwwLjQ3LDAuMjEsMC42OSwwLjMzbDEuMTcsMC40NmMwLjM5LDAuMjIsMC42LDAsMC42Mi0wLjM4bC0wLjE0LTEuMiAgICAgYzAtMC4zNCwwLjA4LTAuNjgsMC4yNC0wLjk5aDAuODFsMS4yLDAuMDVjMC4zOSwwLDAuNTEtMC4yOCwwLjQyLTAuNThsLTAuNTQtMS4yMmMtMC4wOS0wLjMxLTAuMTctMC44MS0wLjE3LTAuODEgICAgIGMwLjE3LTAuMTgsMC4zOS0wLjMxLDAuNjItMC4zOGwxLjMyLTAuNDRjMC4zLTAuMDksMC40Mi0wLjM4LDAuMTItMC43bC0wLjk2LTAuODRjLTAuMTktMC4yMy0wLjM0LTAuNDgtMC40Ni0wLjc1ICAgICBjLTAuMS0wLjExLDAuMjItMC4zOSwwLjQzLTAuNTlsMS4wOC0wLjkxYzAuMjEtMC4xOCwwLjEyLTAuNDktMC4xOC0wLjZsLTEuMTctMC40NWMtMC4zLTAuMTItMC43NS0wLjQ0LTAuNjgtMC41NCAgICAgYy0wLjEtMC4xLDAtMC4zOSwwLjE0LTAuNjlsMC42NS0xLjE3YzAuMTEtMC4zLTAuMDgtMC41MS0wLjQ4LTAuNTNsLTEuMi0wLjA1Yy0wLjMtMC4wMi0wLjYtMC4wNy0wLjg5LTAuMTQgICAgIGMtMC4xNC0wLjI0LTAuMi0wLjUzLTAuMTctMC44MWwwLjE2LTEuM2MwLTAuNC0wLjI4LTAuNTEtMC41OC0wLjQzTDEzLjcxLDMzLjM1eiBNMTEuMiw0MC4wNWMwLjQ2LDAuODMsMC4xNiwxLjg4LTAuNjcsMi4zNSAgICAgYy0wLjc1LDAuNDItMS43LDAuMjItMi4yMi0wLjQ4Yy0wLjQ3LTAuNzMtMC4yNS0xLjcxLDAuNDgtMi4xOGMwLjA0LTAuMDMsMC4wOS0wLjA1LDAuMTMtMC4wN2MwLjc0LTAuNDYsMS43Mi0wLjI5LDIuMjUsMC40MSAgICAgTDExLjIsNDAuMDV6Ii8+JiN4YTsJCQk8cGF0aCBpZD0icGF0aDgwNTMzIiBpbmtzY2FwZTpjb25uZWN0b3ItY3VydmF0dXJlPSIwIiBzdHlsZT0iZmlsbDpub25lOyIgZD0iTTEzLjcxLDMzLjM1Yy0wLjIsMC4yMy0wLjUzLDAuMy0wLjgxLDAuMTcgICAgIGMtMC4xMSwwLjEtMC4yOS0wLjMxLTAuMzgtMC42MWwtMC4zMy0xLjIyYy0wLjE4LTAuNC0wLjU4LTAuNDItMC43LTAuMTJsLTAuOTQsMC44N2MtMC4yMiwwLjM5LDAuMiwwLDAsMGwtMS4zLDAuMDRsLTAuODYtMC45NCAgICAgYy0wLjI4LTAuMzEtMC41OS0wLjIyLTAuNywwLjA3bC0wLjU3LDEuMjhjLTAuMTEsMC4yNy0wLjI1LDAuNTItMC40MywwLjc1Yy0wLjIzLTAuMS0wLjQ2LTAuMjEtMC42OC0wLjMzbC0xLjE5LTAuNDYgICAgIGMtMC4zOS0wLjIyLTAuNiwwLTAuNjEsMC4zN2wwLjAzLDEuMzFjMC4wNCwwLjI4LTAuMDQsMC41Ny0wLjIzLDAuNzljLTAuMjMsMC4wNS0wLjQ2LDAuMDgtMC43LDAuMDZsLTEuMi0wLjA1ICAgICBjLTAuNCwwLTAuNjEsMC4xNy0wLjQzLDAuNTlsMC41NSwxLjIyYzAuMDksMC4zMSwwLjE2LDAuODEsMC4xNiwwLjgxYy0wLjIzLDAuMTMtMC40OSwwLjIyLTAuNzUsMC4yN2wtMS4yMiwwLjU1ICAgICBDMC4xMSwzOC44NSwwLDM5LjE0LDAuMjgsMzkuNDVsMC45NiwwLjg1YzAuMTgsMC4yNCwwLjM0LDAuNDksMC40NywwLjc1Yy0wLjE2LDAuMjQtMC4zMywwLjQ3LTAuNTMsMC42OGwtMC45NCwwLjg1ICAgICBjLTAuMjEsMC4xOS0wLjEyLDAuNSwwLjE3LDAuNjFsMS4xOCwwLjQ2YzAuMjksMC4xMSwwLjY4LDAuMzMsMC42NywwLjUzYy0wLjAxLDAuMjQtMC4wNiwwLjQ3LTAuMTMsMC43bC0wLjY1LDEuMTcgICAgIGMtMC4xMiwwLjI5LDAuMDcsMC41LDAuMzcsMC42MWwxLjMxLTAuMDRjMC4zLTAuMDIsMC42MSwwLjAzLDAuODksMC4xNWMwLjE0LDAuMjEsMC4xNiwwLjQ3LDAuMDcsMC43MWwtMC4wNiwxLjQgICAgIGMwLDAuNCwwLjI3LDAuNTEsMC41NywwLjQzbDEuMTQtMC42NWMwLjI3LTAuMTYsMC42MS0wLjE4LDAuOS0wLjA2YzAuMTEtMC4xLDAuMTksMC4yMSwwLjM4LDAuNjFsMC4zNCwxLjIyICAgICBjMC4xOCwwLjQsMC40OSwwLjMyLDAuNywwLjEzbDAuOTYtMC44N2MwLjE3LTAuMzEsMC40OC0wLjUyLDAuODMtMC41NmwwLjQ4LDAuNTNsMC44NSwwLjkzYzAuMjksMC4zMiwwLjU5LDAuMjMsMC43MS0wLjA2ICAgICBsMC40Ni0xLjM4YzAuMTMtMC4yNiwwLjMxLTAuNDksMC41My0wLjY4YzAuMjQsMC4wOSwwLjQ3LDAuMjEsMC42OSwwLjMzbDEuMTcsMC40NmMwLjM5LDAuMjIsMC42LDAsMC42Mi0wLjM4bC0wLjE0LTEuMiAgICAgYzAtMC4zNCwwLjA4LTAuNjgsMC4yNC0wLjk5aDAuODFsMS4yLDAuMDVjMC4zOSwwLDAuNTEtMC4yOCwwLjQyLTAuNThsLTAuNTQtMS4yMmMtMC4wOS0wLjMxLTAuMTctMC44MS0wLjE3LTAuODEgICAgIGMwLjE3LTAuMTgsMC4zOS0wLjMxLDAuNjItMC4zOGwxLjMyLTAuNDRjMC4zLTAuMDksMC40Mi0wLjM4LDAuMTItMC43bC0wLjk2LTAuODRjLTAuMTktMC4yMy0wLjM0LTAuNDgtMC40Ni0wLjc1ICAgICBjLTAuMS0wLjExLDAuMjItMC4zOSwwLjQzLTAuNTlsMS4wOC0wLjkxYzAuMjEtMC4xOCwwLjEyLTAuNDktMC4xOC0wLjZsLTEuMTctMC40NWMtMC4zLTAuMTItMC43NS0wLjQ0LTAuNjgtMC41NCAgICAgYy0wLjEtMC4xLDAtMC4zOSwwLjE0LTAuNjlsMC42NS0xLjE3YzAuMTEtMC4zLTAuMDgtMC41MS0wLjQ4LTAuNTNsLTEuMi0wLjA1Yy0wLjMtMC4wMi0wLjYtMC4wNy0wLjg5LTAuMTQgICAgIGMtMC4xNC0wLjI0LTAuMi0wLjUzLTAuMTctMC44MWwwLjE2LTEuM2MwLTAuNC0wLjI4LTAuNTEtMC41OC0wLjQzTDEzLjcxLDMzLjM1IE0xMS4yLDQwLjA1YzAuNDYsMC44MywwLjE2LDEuODgtMC42NywyLjM1ICAgICBjLTAuNzUsMC40Mi0xLjcsMC4yMi0yLjIyLTAuNDhjLTAuNDctMC43My0wLjI1LTEuNzEsMC40OC0yLjE4YzAuMDQtMC4wMywwLjA5LTAuMDUsMC4xMy0wLjA3YzAuNzQtMC40NiwxLjcyLTAuMjksMi4yNSwwLjQxIi8+JiN4YTsJCTwvZz4mI3hhOwkJPGcgaWQ9InNoYXBlNTM2Ni01Ij4mI3hhOwkJCTx0aXRsZSBpZD0idGl0bGU4MDUzNiI+cGF0aDg5ODM8L3RpdGxlPiYjeGE7CQkJPHBhdGggaWQ9InBhdGg4MDUzOCIgaW5rc2NhcGU6Y29ubmVjdG9yLWN1cnZhdHVyZT0iMCIgc3R5bGU9ImZpbGw6I0FBQjVDNTsiIGQ9Ik00MC43OSwxNC40YzAuMzItMC4zNCwwLjM0LTAuODYsMC4wNS0xLjIyICAgICBsLTEuNjMtMS44Yy0wLjM2LTAuMjYtMC44NC0wLjI4LTEuMjItMC4wNWwtMi43OSwxLjg0Yy0wLjYtMC40LTEuMzEtMC45My0xLjkxLTEuMzJsMC44Ni0zLjQxYzAuMTItMC40LTAuMDctMC44My0wLjQ1LTEuMDEgICAgIGwtMi4wNC0wLjk1Yy0wLjM0LTAuMjQtMC44MS0wLjE1LTEuMDQsMC4xOGMtMC4wMywwLjA0LTAuMDUsMC4wOC0wLjA3LDAuMTNMMjguNTcsOS44Yy0wLjY5LTAuMzEtMS40My0wLjUxLTIuMTktMC41OSAgICAgbC0wLjMzLTMuNDZjMC4wMy0wLjQ2LTAuMzEtMC44Ni0wLjc4LTAuOWMtMC4wMSwwLTAuMDMsMC0wLjA0LDBIMjIuOWMtMC4zNi0wLjE0LTAuNzUsMC4yMS0wLjg4LDAuNThsLTAuNzUsMy41MiAgICAgYy0wLjc3LDAuMDEtMS41MywwLjE0LTIuMjUsMC4zOWwtMS43LTMuMTRjLTAuMjctMC4zMS0wLjY3LTAuNDctMS4wOC0wLjQybC0yLjI1LDAuODhjLTAuMzksMC4xNC0wLjYyLDAuNTUtMC41MywwLjk2bDAuNywzLjM0ICAgICBjLTAuNjMsMC4zNC0xLjI3LDAuOTItMS45LDEuMjdsLTIuNzItMi4yMUM5LjIxLDkuNzQsOC43Miw5Ljc3LDguNDMsMTAuMWwtMS42NywxLjQ5Yy0wLjM0LDAuMjYtMC40MiwwLjc0LTAuMTcsMS4xbDEuOTUsMi45MSAgICAgYy0wLjU3LDAuNjEtMS4wNSwxLjI5LTEuNDUsMi4wMmwtMy4zOC0xLjEzYy0wLjQ2LTAuMDgtMC45MSwwLjE1LTEuMTMsMC41NkwxLjYzLDE5LjFjLTAuMTYsMC40NywwLjAyLDAuOTgsMC40NCwxLjI0bDIuODMsMS44OSAgICAgYy0wLjI3LDAuNzUtMC4zMSwxLjQ2LTAuNTksMi4xOGwtMy40NiwwLjM0Yy0wLjQyLDAuMTMtMC43MiwwLjUtMC43NSwwLjk0TDAsMjcuOWMtMC4wMSwwLjQ1LDAuMjcsMC44NSwwLjY5LDEuMDFsMy41NCwwLjUyICAgICBjMC4wNSwwLjg0LDAuMTgsMS42NywwLjM3LDIuNDhsLTMuMTUsMS43Yy0wLjM5LDAuMTMtMC42MSwwLjU1LTAuNDgsMC45NEMwLjk4LDM0LjYsMSwzNC42NSwxLjAzLDM0LjdsMC43NSwyLjEyICAgICBjMC4yLDAuNDIsMC42MiwwLjY4LDEuMDgsMC42NmwzLjMzLTAuNzlsMS4xNiwxLjg2TDUuMSw0MS4yN2MtMC4xNywwLjM2LTAuMTQsMC43OCwwLjA3LDEuMTFsMS42NCwxLjc5ICAgICBjMC4yOSwwLjI5LDAuNzMsMC4zNiwxLjA5LDAuMTdsMi45OS0xLjk1YzAuNiwwLjQsMS4zMSwwLjkzLDEuOTEsMS4zMmwtMC44OSwzLjM5Yy0wLjEzLDAuNCwwLjA2LDAuODMsMC40NCwxLjAxbDIuMTYsMS4wOCAgICAgYzAuNCwwLjEzLDAuODUsMCwxLjEyLTAuMzJMMTcuNDksNDZjMC43NSwwLDEuNDYsMC4zMSwyLjIsMC4zNWwwLjIxLDMuNTdjMC4xMywwLjQyLDAuNTEsMC43MiwwLjk1LDAuNzVsMi4zMiwwLjIzICAgICBjMC40LTAuMTMsMC43My0wLjQzLDAuOS0wLjgybDAuNjUtMy40YzAuODYtMC4wOSwxLjYxLTAuMywyLjQ3LTAuMzlsMS41OSwzYzAuMTksMC40MSwwLjY3LDAuNiwxLjA5LDAuNDJsMi4xMi0wLjc1ICAgICBjMC40NS0wLjE1LDAuNzMtMC42LDAuNjctMS4wN0wzMS45LDQ0LjZjMC42OS0wLjM0LDEuMzItMC43NywxLjktMS4yN2wyLjcyLDIuMjFjMC4yOCwwLjM1LDAuOCwwLjQsMS4xNSwwLjEyICAgICBjMC4wMy0wLjAyLDAuMDUtMC4wNCwwLjA3LTAuMDdsMS42Ny0xLjQ5YzAuMzUtMC4yOCwwLjQxLTAuOCwwLjEzLTEuMTVjLTAuMDItMC4wMy0wLjA0LTAuMDUtMC4wNy0wLjA3bC0xLjk2LTIuOTIgICAgIGMwLjYyLTAuNTcsMS4xMS0xLjI2LDEuNDUtMi4wM2wzLjM5LDEuMTNjMC40LDAuMTMsMC44My0wLjA2LDEuMDEtMC40NGwxLjA4LTIuMTZjMC4wOS0wLjQtMC4wMy0wLjgyLTAuMzItMS4xMmwtMy0xLjk4ICAgICBjMC4yNy0wLjY2LDAuNDMtMS4zNiwwLjQ3LTIuMDdsMy41OC0wLjQ1YzAuMzgtMC4xLDAuNzUtMC40NSwwLjc1LTAuN2wwLjExLTIuNDVjMC4wMy0wLjQ2LTAuMzEtMC44Ni0wLjc4LTAuOSAgICAgYy0wLjAxLDAtMC4wMywwLTAuMDQsMGwtMy40MS0wLjY1Yy0wLjAyLTAuNzktMC4xLTEuNTgtMC4yNi0yLjM1bDIuOS0xLjcxYzAuNDctMC4xNSwwLjczLTAuNjUsMC41OC0xLjEyICAgICBjLTAuMDEtMC4wMy0wLjAyLTAuMDUtMC4wMy0wLjA4bC0wLjc1LTIuMTJjLTAuMTMtMC4zOS0wLjU1LTAuNjEtMC45NC0wLjQ4Yy0wLjA1LDAuMDItMC4xLDAuMDQtMC4xNCwwLjA2bC0zLjM4LDAuNTdsLTEuMS0xLjg3ICAgICBsMi4wOC0yLjYxTDQwLjc5LDE0LjR6IE0yNS42MywyNS4wOGMxLjQxLDEuMzcsMS40MywzLjYzLDAuMDYsNS4wNHMtMy42MywxLjQzLTUuMDQsMC4wNmMtMC4xLTAuMDktMC4xOS0wLjE5LTAuMjctMC4zICAgICBjLTEuNDEtMS4zNy0xLjQzLTMuNjMtMC4wNi01LjA0YzEuMzctMS40MSwzLjYzLTEuNDMsNS4wNC0wLjA2QzI1LjQ1LDI0Ljg4LDI1LjU0LDI0Ljk4LDI1LjYzLDI1LjA4eiIvPiYjeGE7CQkJPHBhdGggaWQ9InBhdGg4MDU0MCIgaW5rc2NhcGU6Y29ubmVjdG9yLWN1cnZhdHVyZT0iMCIgc3R5bGU9ImZpbGw6bm9uZTsiIGQ9Ik00MC43OSwxNC40YzAuMzItMC4zNCwwLjM0LTAuODYsMC4wNS0xLjIyICAgICBsLTEuNjMtMS44Yy0wLjM2LTAuMjYtMC44NC0wLjI4LTEuMjItMC4wNWwtMi43OSwxLjg0Yy0wLjYtMC40LTEuMzEtMC45My0xLjkxLTEuMzJsMC44Ni0zLjQxYzAuMTItMC40LTAuMDctMC44My0wLjQ1LTEuMDEgICAgIGwtMi4wNC0wLjk1Yy0wLjM0LTAuMjQtMC44MS0wLjE1LTEuMDQsMC4xOGMtMC4wMywwLjA0LTAuMDUsMC4wOC0wLjA3LDAuMTNMMjguNTcsOS44Yy0wLjY5LTAuMzEtMS40My0wLjUxLTIuMTktMC41OSAgICAgbC0wLjMzLTMuNDZjMC4wMy0wLjQ2LTAuMzEtMC44Ni0wLjc4LTAuOWMtMC4wMSwwLTAuMDMsMC0wLjA0LDBIMjIuOWMtMC4zNi0wLjE0LTAuNzUsMC4yMS0wLjg4LDAuNThsLTAuNzUsMy41MiAgICAgYy0wLjc3LDAuMDEtMS41MywwLjE0LTIuMjUsMC4zOWwtMS43LTMuMTRjLTAuMjctMC4zMS0wLjY3LTAuNDctMS4wOC0wLjQybC0yLjI1LDAuODhjLTAuMzksMC4xNC0wLjYyLDAuNTUtMC41MywwLjk2bDAuNywzLjM0ICAgICBjLTAuNjMsMC4zNC0xLjI3LDAuOTItMS45LDEuMjdsLTIuNzItMi4yMUM5LjIxLDkuNzQsOC43Miw5Ljc3LDguNDMsMTAuMWwtMS42NywxLjQ5Yy0wLjM0LDAuMjYtMC40MiwwLjc0LTAuMTcsMS4xbDEuOTUsMi45MSAgICAgYy0wLjU3LDAuNjEtMS4wNSwxLjI5LTEuNDUsMi4wMmwtMy4zOC0xLjEzYy0wLjQ2LTAuMDgtMC45MSwwLjE1LTEuMTMsMC41NkwxLjYzLDE5LjFjLTAuMTYsMC40NywwLjAyLDAuOTgsMC40NCwxLjI0bDIuODMsMS44OSAgICAgYy0wLjI3LDAuNzUtMC4zMSwxLjQ2LTAuNTksMi4xOGwtMy40NiwwLjM0Yy0wLjQyLDAuMTMtMC43MiwwLjUtMC43NSwwLjk0TDAsMjcuOWMtMC4wMSwwLjQ1LDAuMjcsMC44NSwwLjY5LDEuMDFsMy41NCwwLjUyICAgICBjMC4wNSwwLjg0LDAuMTgsMS42NywwLjM3LDIuNDhsLTMuMTUsMS43Yy0wLjM5LDAuMTMtMC42MSwwLjU1LTAuNDgsMC45NEMwLjk4LDM0LjYsMSwzNC42NSwxLjAzLDM0LjdsMC43NSwyLjEyICAgICBjMC4yLDAuNDIsMC42MiwwLjY4LDEuMDgsMC42NmwzLjMzLTAuNzlsMS4xNiwxLjg2TDUuMSw0MS4yN2MtMC4xNywwLjM2LTAuMTQsMC43OCwwLjA3LDEuMTFsMS42NCwxLjc5ICAgICBjMC4yOSwwLjI5LDAuNzMsMC4zNiwxLjA5LDAuMTdsMi45OS0xLjk1YzAuNiwwLjQsMS4zMSwwLjkzLDEuOTEsMS4zMmwtMC44OSwzLjM5Yy0wLjEzLDAuNCwwLjA2LDAuODMsMC40NCwxLjAxbDIuMTYsMS4wOCAgICAgYzAuNCwwLjEzLDAuODUsMCwxLjEyLTAuMzJMMTcuNDksNDZjMC43NSwwLDEuNDYsMC4zMSwyLjIsMC4zNWwwLjIxLDMuNTdjMC4xMywwLjQyLDAuNTEsMC43MiwwLjk1LDAuNzVsMi4zMiwwLjIzICAgICBjMC40LTAuMTMsMC43My0wLjQzLDAuOS0wLjgybDAuNjUtMy40YzAuODYtMC4wOSwxLjYxLTAuMywyLjQ3LTAuMzlsMS41OSwzYzAuMTksMC40MSwwLjY3LDAuNiwxLjA5LDAuNDJsMi4xMi0wLjc1ICAgICBjMC40NS0wLjE1LDAuNzMtMC42LDAuNjctMS4wN0wzMS45LDQ0LjZjMC42OS0wLjM0LDEuMzItMC43NywxLjktMS4yN2wyLjcyLDIuMjFjMC4yOCwwLjM1LDAuOCwwLjQsMS4xNSwwLjEyICAgICBjMC4wMy0wLjAyLDAuMDUtMC4wNCwwLjA3LTAuMDdsMS42Ny0xLjQ5YzAuMzUtMC4yOCwwLjQxLTAuOCwwLjEzLTEuMTVjLTAuMDItMC4wMy0wLjA0LTAuMDUtMC4wNy0wLjA3bC0xLjk2LTIuOTIgICAgIGMwLjYyLTAuNTcsMS4xMS0xLjI2LDEuNDUtMi4wM2wzLjM5LDEuMTNjMC40LDAuMTMsMC44My0wLjA2LDEuMDEtMC40NGwxLjA4LTIuMTZjMC4wOS0wLjQtMC4wMy0wLjgyLTAuMzItMS4xMmwtMy0xLjk4ICAgICBjMC4yNy0wLjY2LDAuNDMtMS4zNiwwLjQ3LTIuMDdsMy41OC0wLjQ1YzAuMzgtMC4xLDAuNzUtMC40NSwwLjc1LTAuN2wwLjExLTIuNDVjMC4wMy0wLjQ2LTAuMzEtMC44Ni0wLjc4LTAuOSAgICAgYy0wLjAxLDAtMC4wMywwLTAuMDQsMGwtMy40MS0wLjY1Yy0wLjAyLTAuNzktMC4xLTEuNTgtMC4yNi0yLjM1bDIuOS0xLjcxYzAuNDctMC4xNSwwLjczLTAuNjUsMC41OC0xLjEyICAgICBjLTAuMDEtMC4wMy0wLjAyLTAuMDUtMC4wMy0wLjA4bC0wLjc1LTIuMTJjLTAuMTMtMC4zOS0wLjU1LTAuNjEtMC45NC0wLjQ4Yy0wLjA1LDAuMDItMC4xLDAuMDQtMC4xNCwwLjA2bC0zLjM4LDAuNTdsLTEuMS0xLjg3ICAgICBsMi4wOC0yLjYxIE0yNS42MywyNS4wOGMxLjQxLDEuMzcsMS40MywzLjYzLDAuMDYsNS4wNHMtMy42MywxLjQzLTUuMDQsMC4wNmMtMC4xLTAuMDktMC4xOS0wLjE5LTAuMjctMC4zICAgICBjLTEuNDEtMS4zNy0xLjQzLTMuNjMtMC4wNi01LjA0YzEuMzctMS40MSwzLjYzLTEuNDMsNS4wNC0wLjA2QzI1LjQ1LDI0Ljg4LDI1LjU0LDI0Ljk4LDI1LjYzLDI1LjA4Ii8+JiN4YTsJCTwvZz4mI3hhOwkJPGcgaWQ9InNoYXBlNTM2Ny04IiB0cmFuc2Zvcm09InRyYW5zbGF0ZSg0Ni4xOTI1LC0yLjU1KSI+JiN4YTsJCQk8dGl0bGUgaWQ9InRpdGxlODA1NDMiPnBhdGg4OTg1PC90aXRsZT4mI3hhOwkJCTxwYXRoIGlkPSJwYXRoODA1NDUiIGlua3NjYXBlOmNvbm5lY3Rvci1jdXJ2YXR1cmU9IjAiIHN0eWxlPSJmaWxsOiM4MEJDRUI7IiBkPSJNMjUuNjYsMzYuMTVsLTMtMC4zMyAgICAgYy0wLjI0LTAuMDMtMC40My0wLjItMC40OC0wLjQ0Yy0wLjE4LTAuNzctMC40NS0xLjUxLTAuODItMi4yYy0wLjExLTAuMjMtMC4wOS0wLjQ5LDAuMDYtMC43bDEuOTYtMi40MyAgICAgYzAuMTktMC4yNCwwLjE3LTAuNTgtMC4wNS0wLjhsLTEuNjMtMS42NWMtMC4yMi0wLjIxLTAuNTYtMC4yMy0wLjc5LTAuMDVsLTIuMzcsMS45Yy0wLjIsMC4xNi0wLjQ3LDAuMTgtMC42OSwwLjA1ICAgICBjLTAuNjQtMC4zOC0xLjMzLTAuNjctMi4wNC0wLjg4Yy0wLjI0LTAuMDctMC40MS0wLjI3LTAuNDQtMC41MmwtMC4zMy0yLjljLTAuMDMtMC4zMS0wLjMtMC41NC0wLjYxLTAuNTRoLTIuMzMgICAgIGMtMC4zMSwwLjAxLTAuNTcsMC4yNC0wLjYxLDAuNTVsLTAuMzEsMi44NmMtMC4wMywwLjIzLTAuMTksMC40Mi0wLjQyLDAuNDhjLTAuODIsMC4yLTEuNjEsMC41Mi0yLjM1LDAuOTQgICAgIGMtMC4yMSwwLjEzLTAuNDksMC4xMS0wLjY4LTAuMDVsLTIuMTUtMS43M2MtMC40Mi0wLjM1LTAuNzUtMC4zMy0wLjk4LTAuMTFsLTEuNjUsMS42NGMtMC4yMSwwLjIyLTAuMjMsMC41Ni0wLjA1LDAuOGwxLjkxLDIuMzggICAgIGMwLjE1LDAuMTksMC4xNywwLjQ1LDAuMDUsMC42NkM0LjQ5LDMzLjgsNC4yLDM0LjU1LDQsMzUuMzRjLTAuMDYsMC4yNi0wLjI3LDAuNDUtMC41MywwLjQ4bC0yLjkzLDAuMzMgICAgIEMwLjIzLDM2LjE4LDAsMzYuNDUsMCwzNi43NnYyLjMzYzAsMC4zMSwwLjIzLDAuNTcsMC41NCwwLjYxbDMuMTYsMC4zNGMwLjIzLDAuMDMsMC40MiwwLjE5LDAuNDksMC40ICAgICBjMC4xOSwwLjU5LDAuNDQsMS4xNiwwLjc0LDEuNzFjMC4xMSwwLjIyLDAuMDksMC40OS0wLjA1LDAuNjlsLTEuOTQsMi40MmMtMC4xOSwwLjI0LTAuMTcsMC41OCwwLjA1LDAuNzlsMS42NCwxLjY1ICAgICBjMC4yMiwwLjIxLDAuNTYsMC4yMywwLjgsMC4wNGwyLjM4LTEuOTJjMC4yLTAuMTUsMC40Ny0wLjE3LDAuNjgtMC4wNGMwLjYyLDAuMzYsMS4yOCwwLjY0LDEuOTcsMC44NSAgICAgYzAuMjQsMC4wNiwwLjQxLDAuMjcsMC40NCwwLjUxbDAuMzYsMy4yNGMwLjAzLDAuMywwLjI5LDAuNTMsMC41OSwwLjUzbDIuMzIsMGMwLjMsMCwwLjU2LTAuMjMsMC41OS0wLjUzbDAuMzUtMy4yMiAgICAgYzAuMDMtMC4yNCwwLjItMC40NCwwLjQ0LTAuNWMwLjc5LTAuMjEsMS41NS0wLjUyLDIuMjUtMC45M2MwLjIyLTAuMTMsMC40OS0wLjExLDAuNjgsMC4wNGwyLjQ0LDEuOTcgICAgIGMwLjI0LDAuMTksMC41OCwwLjE3LDAuOC0wLjA0bDEuNjUtMS42NmMwLjIxLTAuMjIsMC4yMy0wLjU2LDAuMDUtMC43OWwtMi0yLjQ5Yy0wLjE1LTAuMTktMC4xNy0wLjQ2LTAuMDUtMC42NyAgICAgYzAuMjgtMC41MSwwLjUyLTEuMDYsMC43LTEuNjJjMC4wNy0wLjIzLDAuMjctMC40LDAuNS0wLjQzbDMuMTUtMC4zNWMwLjMtMC4wNCwwLjUzLTAuMywwLjU0LTAuNjF2LTIuMzEgICAgIEMyNi4yNCwzNi40NCwyNS45OSwzNi4xOCwyNS42NiwzNi4xNUwyNS42NiwzNi4xNXogTTEzLjQ2LDQyLjJjLTIuNjMsMC00Ljc1LTIuMTMtNC43NS00Ljc2YzAtMi42MywyLjEzLTQuNzUsNC43Ni00Ljc1ICAgICBjMi42MiwwLDQuNzUsMi4xMyw0Ljc1LDQuNzVjMCwyLjYzLTIuMTIsNC43Ni00Ljc1LDQuNzZDMTMuNDcsNDIuMiwxMy40Niw0Mi4yLDEzLjQ2LDQyLjJ6Ii8+JiN4YTsJCTwvZz4mI3hhOwk8L2c+JiN4YTs8L2c+JiN4YTs8L3N2Zz4=;fontSize=25;" vertex="1" parent="1">
          <mxGeometry x="280" y="225.75" width="105.06" height="71.5" as="geometry" />
        </mxCell>
        <mxCell id="KRbH5QjJdrwvxZO4buaG-2" value="&lt;font style=&quot;font-size: 25px;&quot;&gt;相机监控&lt;/font&gt;" style="shape=mxgraph.signs.tech.camera_2;html=1;pointerEvents=1;fillColor=#007FFF;strokeColor=none;verticalLabelPosition=bottom;verticalAlign=top;align=center;sketch=0;" vertex="1" parent="1">
          <mxGeometry x="90" y="363.46" width="99" height="72" as="geometry" />
        </mxCell>
        <mxCell id="KRbH5QjJdrwvxZO4buaG-3" value="&lt;font style=&quot;font-size: 25px;&quot;&gt;人脸识别&lt;/font&gt;" style="verticalLabelPosition=bottom;shadow=0;dashed=0;align=center;html=1;verticalAlign=top;strokeWidth=1;shape=mxgraph.mockup.containers.userMale;strokeColor=#666666;strokeColor2=#008cff;" vertex="1" parent="1">
          <mxGeometry x="455" y="90" width="90" height="93" as="geometry" />
        </mxCell>
        <mxCell id="KRbH5QjJdrwvxZO4buaG-4" value="体态识别" style="shape=image;verticalLabelPosition=bottom;labelBackgroundColor=#ffffff;verticalAlign=top;aspect=fixed;imageAspect=0;image=data:image/svg+xml,PHN2ZyB4bWxuczpjYz0iaHR0cDovL2NyZWF0aXZlY29tbW9ucy5vcmcvbnMjIiB4bWxuczpkYz0iaHR0cDovL3B1cmwub3JnL2RjL2VsZW1lbnRzLzEuMS8iIHhtbG5zOmlua3NjYXBlPSJodHRwOi8vd3d3Lmlua3NjYXBlLm9yZy9uYW1lc3BhY2VzL2lua3NjYXBlIiB4bWxuczpyZGY9Imh0dHA6Ly93d3cudzMub3JnLzE5OTkvMDIvMjItcmRmLXN5bnRheC1ucyMiIHhtbG5zOnNvZGlwb2RpPSJodHRwOi8vc29kaXBvZGkuc291cmNlZm9yZ2UubmV0L0RURC9zb2RpcG9kaS0wLmR0ZCIgeG1sbnM6c3ZnPSJodHRwOi8vd3d3LnczLm9yZy8yMDAwL3N2ZyIgeG1sbnM9Imh0dHA6Ly93d3cudzMub3JnLzIwMDAvc3ZnIiB4bWxuczp4bGluaz0iaHR0cDovL3d3dy53My5vcmcvMTk5OS94bGluayIgdmVyc2lvbj0iMS4xIiBpZD0ic3ZnOTI1NzIiIGlua3NjYXBlOnZlcnNpb249IjAuOTIuMyAoMjQwNTU0NiwgMjAxOC0wMy0xMSkiIHNvZGlwb2RpOmRvY25hbWU9InBlcl9zZWF0X3ByaWNlLnN2ZyIgeD0iMHB4IiB5PSIwcHgiIHZpZXdCb3g9IjAgMCAzNy40IDYwLjY5IiBzdHlsZT0iZW5hYmxlLWJhY2tncm91bmQ6bmV3IDAgMCAzNy40IDYwLjY5OyIgeG1sOnNwYWNlPSJwcmVzZXJ2ZSI+JiN4YTs8c29kaXBvZGk6bmFtZWR2aWV3IGJvcmRlcmNvbG9yPSIjNjY2NjY2IiBib3JkZXJvcGFjaXR5PSIxIiBmaXQtbWFyZ2luLWJvdHRvbT0iMCIgZml0LW1hcmdpbi1sZWZ0PSIwIiBmaXQtbWFyZ2luLXJpZ2h0PSIwIiBmaXQtbWFyZ2luLXRvcD0iMCIgZ3JpZHRvbGVyYW5jZT0iMTAiIGd1aWRldG9sZXJhbmNlPSIxMCIgaWQ9Im5hbWVkdmlldzkyNTc0IiBpbmtzY2FwZTpjdXJyZW50LWxheWVyPSJzdmc5MjU3MiIgaW5rc2NhcGU6Y3g9IjI0LjkzMzIyNSIgaW5rc2NhcGU6Y3k9IjQwLjU0NzY5MyIgaW5rc2NhcGU6cGFnZW9wYWNpdHk9IjAiIGlua3NjYXBlOnBhZ2VzaGFkb3c9IjIiIGlua3NjYXBlOndpbmRvdy1oZWlnaHQ9IjEwMTciIGlua3NjYXBlOndpbmRvdy1tYXhpbWl6ZWQ9IjEiIGlua3NjYXBlOndpbmRvdy13aWR0aD0iMTkyMCIgaW5rc2NhcGU6d2luZG93LXg9Ii04IiBpbmtzY2FwZTp3aW5kb3cteT0iLTgiIGlua3NjYXBlOnpvb209IjEwLjczNzk2MyIgb2JqZWN0dG9sZXJhbmNlPSIxMCIgcGFnZWNvbG9yPSIjZmZmZmZmIiBzaG93Z3JpZD0iZmFsc2UiPiYjeGE7CTwvc29kaXBvZGk6bmFtZWR2aWV3PiYjeGE7PGcgaWQ9Imc5MjU3MCIgdHJhbnNmb3JtPSJ0cmFuc2xhdGUoMC4wMDI0MTc1NikiPiYjeGE7CTx0aXRsZSBpZD0idGl0bGU5MjU2MyI+UGFnZS0xPC90aXRsZT4mI3hhOwk8ZyBpZD0ic2hhcGU1NjE0LTEiPiYjeGE7CQk8dGl0bGUgaWQ9InRpdGxlOTI1NjUiPlBlci1zZWF0IFByaWNlPC90aXRsZT4mI3hhOwkJPHBhdGggaWQ9InBhdGg5MjU2NyIgaW5rc2NhcGU6Y29ubmVjdG9yLWN1cnZhdHVyZT0iMCIgc3R5bGU9ImZpbGw6IzNGNTc2NTsiIGQ9Ik0xMS4wMywxMi43NWMzLjUyLDAsNi4zOS0yLjg3LDYuMzktNi4zNSAgICBjMC0zLjQ5LTIuODctNi40LTYuMzktNi40QzcuMzYsMCw0LjY0LDIuOTEsNC40OSw2LjRDNC42NCw5Ljg4LDcuMzYsMTIuNzUsMTEuMDMsMTIuNzV6IE0xMS4wMyw2LjRMMTEuMDMsNi40eiBNNi4xNCwyMC41MyAgICBjLTEuMTktNy4zMiw5LjQ4LTkuNTgsMTEuMTctMmMyLjg3LDE0LjI1LDIuODcsMTQuMjUsMi44NywxNC4yNWMxMC44MywwLDEwLjgzLDAsMTAuODMsMGMzLjA2LDAsNC43LDIuNTYsNC43LDQuODYgICAgYzAsMTkuNTMsMCwxOS41MywwLDE5LjUzYzAsNC43MS02LjY5LDQuNzEtNi42OS0wLjExYzAtNC40MSwwLTE1LjE3LDAtMTUuMTdjLTEzLjg5LDAtMTMuODksMC0xMy44OSwwICAgIGMtMy4xOCwwLTUuMTctMi4xNC01LjU5LTQuNzFDNi4xNCwyMC41Myw2LjE0LDIwLjUzLDYuMTQsMjAuNTN6IE0yNCw0My4wOGMzLjUyLDAsMy41Miw1LjMyLDAsNS4zMmMtOS45MSwwLTkuOTEsMC05LjkxLDAgICAgYy00Ljg1LDAtOS42LTMuNDgtMTAuODItOS4xMUMwLjA1LDI0LjI4LDAuMDUsMjQuMjgsMC4wNSwyNC4yOGMtMC42MS0zLjMzLDQuMjktNC4zNyw1LjA1LTAuOTJjMi45MSwxNC4yOCwyLjkxLDE0LjI4LDIuOTEsMTQuMjggICAgYzAuODgsMy42NCwzLjY0LDUuNDQsNi44MSw1LjQ0QzI0LDQzLjA4LDI0LDQzLjA4LDI0LDQzLjA4eiBNMzcuNCw5LjU3TDM3LjQsOS41N3ogTTM3LjQsOS41N0wzNy40LDkuNTd6Ii8+JiN4YTsJPC9nPiYjeGE7PC9nPiYjeGE7PC9zdmc+;fontSize=25;" vertex="1" parent="1">
          <mxGeometry x="470" y="336.53999999999996" width="60" height="98.92" as="geometry" />
        </mxCell>
        <mxCell id="KRbH5QjJdrwvxZO4buaG-9" value="前端交互" style="shape=image;verticalLabelPosition=bottom;labelBackgroundColor=#ffffff;verticalAlign=top;aspect=fixed;imageAspect=0;image=data:image/svg+xml,PHN2ZyB4bWxuczpjYz0iaHR0cDovL2NyZWF0aXZlY29tbW9ucy5vcmcvbnMjIiB4bWxuczpkYz0iaHR0cDovL3B1cmwub3JnL2RjL2VsZW1lbnRzLzEuMS8iIHhtbG5zOmlua3NjYXBlPSJodHRwOi8vd3d3Lmlua3NjYXBlLm9yZy9uYW1lc3BhY2VzL2lua3NjYXBlIiB4bWxuczpyZGY9Imh0dHA6Ly93d3cudzMub3JnLzE5OTkvMDIvMjItcmRmLXN5bnRheC1ucyMiIHhtbG5zOnNvZGlwb2RpPSJodHRwOi8vc29kaXBvZGkuc291cmNlZm9yZ2UubmV0L0RURC9zb2RpcG9kaS0wLmR0ZCIgeG1sbnM6c3ZnPSJodHRwOi8vd3d3LnczLm9yZy8yMDAwL3N2ZyIgeG1sbnM9Imh0dHA6Ly93d3cudzMub3JnLzIwMDAvc3ZnIiB4bWxuczp4bGluaz0iaHR0cDovL3d3dy53My5vcmcvMTk5OS94bGluayIgdmVyc2lvbj0iMS4xIiBpZD0ic3ZnMzI1MDkiIGlua3NjYXBlOnZlcnNpb249IjAuOTIuMyAoMjQwNTU0NiwgMjAxOC0wMy0xMSkiIHNvZGlwb2RpOmRvY25hbWU9InNtYXJ0cGhvbmUuc3ZnIiB4PSIwcHgiIHk9IjBweCIgdmlld0JveD0iMCAwIDI4LjE5IDU3Ljc0IiBzdHlsZT0iZW5hYmxlLWJhY2tncm91bmQ6bmV3IDAgMCAyOC4xOSA1Ny43NDsiIHhtbDpzcGFjZT0icHJlc2VydmUiPiYjeGE7PHNvZGlwb2RpOm5hbWVkdmlldyBib3JkZXJjb2xvcj0iIzY2NjY2NiIgYm9yZGVyb3BhY2l0eT0iMSIgZml0LW1hcmdpbi1ib3R0b209IjAiIGZpdC1tYXJnaW4tbGVmdD0iMCIgZml0LW1hcmdpbi1yaWdodD0iMCIgZml0LW1hcmdpbi10b3A9IjAiIGdyaWR0b2xlcmFuY2U9IjEwIiBndWlkZXRvbGVyYW5jZT0iMTAiIGlkPSJuYW1lZHZpZXczMjUxMSIgaW5rc2NhcGU6Y3VycmVudC1sYXllcj0ic3ZnMzI1MDkiIGlua3NjYXBlOmN4PSIxOC43OTA5MjkiIGlua3NjYXBlOmN5PSIzOC40OTYxMTUiIGlua3NjYXBlOnBhZ2VvcGFjaXR5PSIwIiBpbmtzY2FwZTpwYWdlc2hhZG93PSIyIiBpbmtzY2FwZTp3aW5kb3ctaGVpZ2h0PSIxMDE3IiBpbmtzY2FwZTp3aW5kb3ctbWF4aW1pemVkPSIxIiBpbmtzY2FwZTp3aW5kb3ctd2lkdGg9IjE5MjAiIGlua3NjYXBlOndpbmRvdy14PSItOCIgaW5rc2NhcGU6d2luZG93LXk9Ii04IiBpbmtzY2FwZTp6b29tPSIxMC45NzczMjEiIG9iamVjdHRvbGVyYW5jZT0iMTAiIHBhZ2Vjb2xvcj0iI2ZmZmZmZiIgc2hvd2dyaWQ9ImZhbHNlIj4mI3hhOwk8L3NvZGlwb2RpOm5hbWVkdmlldz4mI3hhOzxnIGlkPSJnMzI1MDciIHRyYW5zZm9ybT0idHJhbnNsYXRlKC0wLjc1MDAzNTY2LC0wLjc0OTk5NDg1KSI+JiN4YTsJPHRpdGxlIGlkPSJ0aXRsZTMyNDM3Ij5QYWdlLTE8L3RpdGxlPiYjeGE7CTxnIGlkPSJncm91cDMzNzktMSIgdHJhbnNmb3JtPSJ0cmFuc2xhdGUoMC43NSwtMC43NSkiPiYjeGE7CQk8dGl0bGUgaWQ9InRpdGxlMzI0MzkiPlNtYXJ0cGhvbmU8L3RpdGxlPiYjeGE7CQk8ZyBpZD0ic2hhcGUzMzgwLTIiPiYjeGE7CQkJPHRpdGxlIGlkPSJ0aXRsZTMyNDQxIj5wYXRoMjU5NTY8L3RpdGxlPiYjeGE7CQkJPHBhdGggaWQ9InBhdGgzMjQ0MyIgaW5rc2NhcGU6Y29ubmVjdG9yLWN1cnZhdHVyZT0iMCIgc3R5bGU9ImZpbGw6IzJFMkUyRTsiIGQ9Ik0yMi44Nyw1OS4yNEg1LjMxQzIuMzgsNTkuMjQsMCw1Ni44NiwwLDUzLjkyICAgICBjMCwwLDAsMCwwLDBWNi44MUMwLDMuODgsMi4zOCwxLjUsNS4zMSwxLjVoMTcuNTZjMi45MywwLDUuMzIsMi4zNyw1LjMyLDUuMzFjMCwwLDAsMCwwLDB2NDcuMTFjMCwyLjkzLTIuMzcsNS4zMi01LjMxLDUuMzIgICAgIEMyMi44OCw1OS4yNCwyMi44Nyw1OS4yNCwyMi44Nyw1OS4yNHoiLz4mI3hhOwkJPC9nPiYjeGE7CQk8ZyBpZD0ic2hhcGUzMzgxLTQiIHRyYW5zZm9ybT0idHJhbnNsYXRlKDEuODE4NDUsLTcuMjczOCkiPiYjeGE7CQkJPHRpdGxlIGlkPSJ0aXRsZTMyNDQ2Ij5wYXRoMjU5NTg8L3RpdGxlPiYjeGE7CQkJPHJlY3QgaWQ9InJlY3QzMjQ0OCIgeD0iMCIgeT0iMTYuNSIgc3R5bGU9ImZpbGw6IzEwNkVCRTsiIHdpZHRoPSIyNC41NSIgaGVpZ2h0PSI0Mi43MyIvPiYjeGE7CQk8L2c+JiN4YTsJCTxnIGlkPSJzaGFwZTMzODItNiIgdHJhbnNmb3JtPSJ0cmFuc2xhdGUoMTMuNjQwMiwtNTQuMjUzKSI+JiN4YTsJCQk8dGl0bGUgaWQ9InRpdGxlMzI0NTEiPmNpcmNsZTI1OTYwPC90aXRsZT4mI3hhOwkJCTxjaXJjbGUgaWQ9ImVsbGlwc2UzMjQ1MyIgc3R5bGU9ImZpbGw6Izc2NzU3NjsiIGN4PSIwLjUiIGN5PSI1OC43NCIgcj0iMC41Ii8+JiN4YTsJCTwvZz4mI3hhOwkJPGcgaWQ9InNoYXBlMzM4My04IiB0cmFuc2Zvcm09InRyYW5zbGF0ZSgxMS42MjYzLC0xLjI5NzQ2KSI+JiN4YTsJCQk8dGl0bGUgaWQ9InRpdGxlMzI0NTYiPmNpcmNsZTI1OTYyPC90aXRsZT4mI3hhOwkJCTxjaXJjbGUgaWQ9ImVsbGlwc2UzMjQ1OCIgc3R5bGU9ImZpbGw6IzQ3NDc0NzsiIGN4PSIyLjM1IiBjeT0iNTYuODgiIHI9IjIuMzUiLz4mI3hhOwkJPC9nPiYjeGE7CQk8ZyBpZD0ic2hhcGUzMzg0LTEwIiB0cmFuc2Zvcm09InRyYW5zbGF0ZSgxMS4wMzMsLTUxLjgyNTgpIj4mI3hhOwkJCTx0aXRsZSBpZD0idGl0bGUzMjQ2MSI+cGF0aDI1OTY0PC90aXRsZT4mI3hhOwkJCTxwYXRoIGlkPSJwYXRoMzI0NjMiIGlua3NjYXBlOmNvbm5lY3Rvci1jdXJ2YXR1cmU9IjAiIHN0eWxlPSJmaWxsOiM3Njc1NzY7IiBkPSJNNS41Miw1OS4yNEgwLjVDMC4yMiw1OS4yMSwwLjAxLDU4Ljk4LDAsNTguNyAgICAgYzAtMC4yOCwwLjIyLTAuNSwwLjUtMC4zN2g1LjAyYzAuMjgtMC4xMywwLjUsMC4wOSwwLjUsMC4zN0M2LjAxLDU4Ljk4LDUuOCw1OS4yMSw1LjUyLDU5LjI0TDUuNTIsNTkuMjR6Ii8+JiN4YTsJCTwvZz4mI3hhOwkJPGcgaWQ9InNoYXBlMzM4NS0xMiIgdHJhbnNmb3JtPSJ0cmFuc2xhdGUoNS4yNzM5NiwtMzEuMTQ5MSkiPiYjeGE7CQkJPHRpdGxlIGlkPSJ0aXRsZTMyNDY2Ij5wYXRoMjU5NjY8L3RpdGxlPiYjeGE7CQkJPHBhdGggaWQ9InBhdGgzMjQ2OCIgaW5rc2NhcGU6Y29ubmVjdG9yLWN1cnZhdHVyZT0iMCIgc3R5bGU9ImZpbGw6IzI0ODhEODsiIGQ9Ik0yMS4wOSw1OS4yNFYzOS45MkgwTDIxLjA5LDU5LjI0eiIvPiYjeGE7CQk8L2c+JiN4YTsJCTxnIGlkPSJzaGFwZTMzODYtMTQiIHRyYW5zZm9ybT0idHJhbnNsYXRlKDIuNzI3NjgsLTE3LjcyOTkpIj4mI3hhOwkJCTx0aXRsZSBpZD0idGl0bGUzMjQ3MSI+cGF0aDI1OTY4PC90aXRsZT4mI3hhOwkJCTxwYXRoIGlkPSJwYXRoMzI0NzMiIGlua3NjYXBlOmNvbm5lY3Rvci1jdXJ2YXR1cmU9IjAiIHN0eWxlPSJmaWxsOiNGRkZGRkY7IiBkPSJNMCw0OC43OGgyMi4yOHY0LjU1SDBWNDguNzh6IE0wLDU0LjY5aDIyLjI4ICAgICB2NC41NUgwVjU0LjY5eiIvPiYjeGE7CQk8L2c+JiN4YTsJCTxnIGlkPSJzaGFwZTMzODctMTYiIHRyYW5zZm9ybT0idHJhbnNsYXRlKDIuNzI3NjgsLTExLjM2NTMpIj4mI3hhOwkJCTx0aXRsZSBpZD0idGl0bGUzMjQ3NiI+cGF0aDI1OTcwPC90aXRsZT4mI3hhOwkJCTxyZWN0IGlkPSJyZWN0MzI0NzgiIHg9IjAiIHk9IjU0LjI0IiBzdHlsZT0iZmlsbDojMDBCMjk0OyIgd2lkdGg9IjIyLjI4IiBoZWlnaHQ9IjUiLz4mI3hhOwkJPC9nPiYjeGE7CQk8ZyBpZD0ic2hhcGUzMzg4LTE4IiB0cmFuc2Zvcm09InRyYW5zbGF0ZSgzLjkzNjA0LC0zMi40NjgpIj4mI3hhOwkJCTx0aXRsZSBpZD0idGl0bGUzMjQ4MSI+Y2lyY2xlMjU5NzI8L3RpdGxlPiYjeGE7CQkJPGNpcmNsZSBpZD0iZWxsaXBzZTMyNDgzIiBzdHlsZT0iZmlsbDojMDBCMjk0OyIgY3g9IjEuMjciIGN5PSI1Ny45NiIgcj0iMS4yNyIvPiYjeGE7CQk8L2c+JiN4YTsJCTxnIGlkPSJzaGFwZTMzODktMjAiIHRyYW5zZm9ybT0idHJhbnNsYXRlKDEyLjg5NDIsLTMyLjQ2OCkiPiYjeGE7CQkJPHRpdGxlIGlkPSJ0aXRsZTMyNDg2Ij5jaXJjbGUyNTk3NDwvdGl0bGU+JiN4YTsJCQk8Y2lyY2xlIGlkPSJlbGxpcHNlMzI0ODgiIHN0eWxlPSJmaWxsOiNBNkE2QTY7IiBjeD0iMS4yNyIgY3k9IjU3Ljk2IiByPSIxLjI3Ii8+JiN4YTsJCTwvZz4mI3hhOwkJPGcgaWQ9InNoYXBlMzM5MC0yMiIgdHJhbnNmb3JtPSJ0cmFuc2xhdGUoNS45MDk5NiwtNDAuOTE1MSkiPiYjeGE7CQkJPHRpdGxlIGlkPSJ0aXRsZTMyNDkxIj5wYXRoMjU5NzY8L3RpdGxlPiYjeGE7CQkJPHJlY3QgaWQ9InJlY3QzMjQ5MyIgeD0iMCIgeT0iNTguMzMiIHN0eWxlPSJmaWxsOiM2OUFGRTU7IiB3aWR0aD0iMTYuODIiIGhlaWdodD0iMC45MSIvPiYjeGE7CQk8L2c+JiN4YTsJCTxnIGlkPSJzaGFwZTMzOTEtMjQiIHRyYW5zZm9ybT0idHJhbnNsYXRlKDIxLjQ3OTEsLTMyLjQ2OCkiPiYjeGE7CQkJPHRpdGxlIGlkPSJ0aXRsZTMyNDk2Ij5jaXJjbGUyNTk3ODwvdGl0bGU+JiN4YTsJCQk8Y2lyY2xlIGlkPSJlbGxpcHNlMzI0OTgiIHN0eWxlPSJmaWxsOiNBNkE2QTY7IiBjeD0iMS4yNyIgY3k9IjU3Ljk2IiByPSIxLjI3Ii8+JiN4YTsJCTwvZz4mI3hhOwkJPGcgaWQ9InNoYXBlMzM5Mi0yNiIgdHJhbnNmb3JtPSJ0cmFuc2xhdGUoMS44MTg0NSwtNDMuNjQyOCkiPiYjeGE7CQkJPHRpdGxlIGlkPSJ0aXRsZTMyNTAxIj5wYXRoMjU5ODA8L3RpdGxlPiYjeGE7CQkJPHJlY3QgaWQ9InJlY3QzMjUwMyIgeD0iMCIgeT0iNTIuODciIHN0eWxlPSJmaWxsOiNGRkE5NDA7IiB3aWR0aD0iMjQuNTUiIGhlaWdodD0iNi4zNiIvPiYjeGE7CQk8L2c+JiN4YTsJPC9nPiYjeGE7PC9nPiYjeGE7PC9zdmc+;fontSize=25;" vertex="1" parent="1">
          <mxGeometry x="120.19" y="90" width="38.62" height="80" as="geometry" />
        </mxCell>
        <mxCell id="KRbH5QjJdrwvxZO4buaG-12" value="程序监控" style="shape=image;verticalLabelPosition=bottom;labelBackgroundColor=#ffffff;verticalAlign=top;aspect=fixed;imageAspect=0;image=data:image/svg+xml,PHN2ZyB4bWxuczpjYz0iaHR0cDovL2NyZWF0aXZlY29tbW9ucy5vcmcvbnMjIiB4bWxuczpkYz0iaHR0cDovL3B1cmwub3JnL2RjL2VsZW1lbnRzLzEuMS8iIHhtbG5zOmlua3NjYXBlPSJodHRwOi8vd3d3Lmlua3NjYXBlLm9yZy9uYW1lc3BhY2VzL2lua3NjYXBlIiB4bWxuczpyZGY9Imh0dHA6Ly93d3cudzMub3JnLzE5OTkvMDIvMjItcmRmLXN5bnRheC1ucyMiIHhtbG5zOnNvZGlwb2RpPSJodHRwOi8vc29kaXBvZGkuc291cmNlZm9yZ2UubmV0L0RURC9zb2RpcG9kaS0wLmR0ZCIgeG1sbnM6c3ZnPSJodHRwOi8vd3d3LnczLm9yZy8yMDAwL3N2ZyIgeG1sbnM9Imh0dHA6Ly93d3cudzMub3JnLzIwMDAvc3ZnIiB4bWxuczp4bGluaz0iaHR0cDovL3d3dy53My5vcmcvMTk5OS94bGluayIgdmVyc2lvbj0iMS4xIiBpZD0ic3ZnNTgwODUiIGlua3NjYXBlOnZlcnNpb249IjAuOTIuMyAoMjQwNTU0NiwgMjAxOC0wMy0xMSkiIHNvZGlwb2RpOmRvY25hbWU9ImF6dXJlX2ZpbGVzX3N0b3JhZ2Uuc3ZnIiB4PSIwcHgiIHk9IjBweCIgdmlld0JveD0iMCAwIDc1LjE3IDYyLjY1IiBzdHlsZT0iZW5hYmxlLWJhY2tncm91bmQ6bmV3IDAgMCA3NS4xNyA2Mi42NTsiIHhtbDpzcGFjZT0icHJlc2VydmUiPiYjeGE7PHNvZGlwb2RpOm5hbWVkdmlldyBib3JkZXJjb2xvcj0iIzY2NjY2NiIgYm9yZGVyb3BhY2l0eT0iMSIgZml0LW1hcmdpbi1ib3R0b209IjAiIGZpdC1tYXJnaW4tbGVmdD0iMCIgZml0LW1hcmdpbi1yaWdodD0iMCIgZml0LW1hcmdpbi10b3A9IjAiIGdyaWR0b2xlcmFuY2U9IjEwIiBndWlkZXRvbGVyYW5jZT0iMTAiIGlkPSJuYW1lZHZpZXc1ODA4NyIgaW5rc2NhcGU6Y3VycmVudC1sYXllcj0ic3ZnNTgwODUiIGlua3NjYXBlOmN4PSIxMDcuNDEzOTciIGlua3NjYXBlOmN5PSIyNS4yNzAzOCIgaW5rc2NhcGU6cGFnZW9wYWNpdHk9IjAiIGlua3NjYXBlOnBhZ2VzaGFkb3c9IjIiIGlua3NjYXBlOndpbmRvdy1oZWlnaHQ9IjEwMTciIGlua3NjYXBlOndpbmRvdy1tYXhpbWl6ZWQ9IjEiIGlua3NjYXBlOndpbmRvdy13aWR0aD0iMTkyMCIgaW5rc2NhcGU6d2luZG93LXg9Ii04IiBpbmtzY2FwZTp3aW5kb3cteT0iLTgiIGlua3NjYXBlOnpvb209IjQuMTcxMTY5OSIgb2JqZWN0dG9sZXJhbmNlPSIxMCIgcGFnZWNvbG9yPSIjZmZmZmZmIiBzaG93Z3JpZD0iZmFsc2UiPiYjeGE7CTwvc29kaXBvZGk6bmFtZWR2aWV3PiYjeGE7PGcgaWQ9Imc1ODA4MyIgdHJhbnNmb3JtPSJ0cmFuc2xhdGUoLTcuNjUwMTcwMywtNy42NDczOTUpIj4mI3hhOwk8dGl0bGUgaWQ9InRpdGxlNTgwNDYiPlBhZ2UtMTwvdGl0bGU+JiN4YTsJPGcgaWQ9Imdyb3VwNTIwOS0xIiB0cmFuc2Zvcm09InRyYW5zbGF0ZSg3LjY1LC03LjY1KSI+JiN4YTsJCTx0aXRsZSBpZD0idGl0bGU1ODA0OCI+QXp1cmUgRmlsZXMgU3RvcmFnZTwvdGl0bGU+JiN4YTsJCTxnIGlkPSJzaGFwZTUyMTAtMiI+JiN4YTsJCQk8dGl0bGUgaWQ9InRpdGxlNTgwNTAiPlNoZWV0LjUyMTA8L3RpdGxlPiYjeGE7CQkJPHBhdGggaWQ9InBhdGg1ODA1MiIgaW5rc2NhcGU6Y29ubmVjdG9yLWN1cnZhdHVyZT0iMCIgc3R5bGU9ImZpbGw6I0EwQTFBMjsiIGQ9Ik0wLDc1LjE4YzAsMS40NSwxLjIsMi43NywyLjcxLDIuNzdoNjkuNjEgICAgIGMxLjUsMCwyLjg1LTEuMTcsMi44NS0yLjc3VjI2Ljk1SDBWNzUuMTh6Ii8+JiN4YTsJCTwvZz4mI3hhOwkJPGcgaWQ9InNoYXBlNTIxMS00IiB0cmFuc2Zvcm09InRyYW5zbGF0ZSgwLC01MC45OTExKSI+JiN4YTsJCQk8dGl0bGUgaWQ9InRpdGxlNTgwNTUiPlNoZWV0LjUyMTE8L3RpdGxlPiYjeGE7CQkJPHBhdGggaWQ9InBhdGg1ODA1NyIgaW5rc2NhcGU6Y29ubmVjdG9yLWN1cnZhdHVyZT0iMCIgc3R5bGU9ImZpbGw6IzdBN0E3QTsiIGQ9Ik03Mi4zMiw2Ni40NEgyLjcxQzEuMiw2Ni40NCwwLDY3Ljc1LDAsNjkuMiAgICAgdjguNzVoNzUuMTd2LTguNzRjMC0xLjQ2LTEuMjItMi42MS0yLjg3LTIuNjFMNzIuMzIsNjYuNDR6Ii8+JiN4YTsJCQk8cGF0aCBpZD0icGF0aDU4MDU5IiBpbmtzY2FwZTpjb25uZWN0b3ItY3VydmF0dXJlPSIwIiBzdHlsZT0iZmlsbDpub25lOyIgZD0iTTcyLjMyLDY2LjQ0SDIuNzFDMS4yLDY2LjQ0LDAsNjcuNzUsMCw2OS4ydjguNzUgICAgIGg3NS4xN3YtOC43NGMwLTEuNDYtMS4yMi0yLjYxLTIuODctMi42MSIvPiYjeGE7CQk8L2c+JiN4YTsJCTxnIGlkPSJzaGFwZTUyMTItNyIgdHJhbnNmb3JtPSJ0cmFuc2xhdGUoNi4wMTM5OSwtMjEuMTI0MSkiPiYjeGE7CQkJPHRpdGxlIGlkPSJ0aXRsZTU4MDYyIj5TaGVldC41MjEyPC90aXRsZT4mI3hhOwkJCTxyZWN0IGlkPSJyZWN0NTgwNjQiIHg9IjAiIHk9IjY3Ljc1IiBzdHlsZT0iZmlsbDojQjhENDMyOyIgd2lkdGg9IjYzLjE1IiBoZWlnaHQ9IjEwLjIiLz4mI3hhOwkJPC9nPiYjeGE7CQk8ZyBpZD0ic2hhcGU1MjEzLTkiIHRyYW5zZm9ybT0idHJhbnNsYXRlKDYuMDEzOTksLTM2LjQyMSkiPiYjeGE7CQkJPHRpdGxlIGlkPSJ0aXRsZTU4MDY3Ij5TaGVldC41MjEzPC90aXRsZT4mI3hhOwkJCTxyZWN0IGlkPSJyZWN0NTgwNjkiIHg9IjAiIHk9IjY3Ljc1IiBzdHlsZT0iZmlsbDojRkZGRkZGOyIgd2lkdGg9IjYzLjE1IiBoZWlnaHQ9IjEwLjIiLz4mI3hhOwkJPC9nPiYjeGE7CQk8ZyBpZD0ic2hhcGU1MjE0LTExIiB0cmFuc2Zvcm09InRyYW5zbGF0ZSg2LjAxMzk5LC01LjgyNzMpIj4mI3hhOwkJCTx0aXRsZSBpZD0idGl0bGU1ODA3MiI+U2hlZXQuNTIxNDwvdGl0bGU+JiN4YTsJCQk8cmVjdCBpZD0icmVjdDU4MDc0IiB4PSIwIiB5PSI2Ny43NSIgc3R5bGU9ImZpbGw6I0I4RDQzMjsiIHdpZHRoPSI2My4xNSIgaGVpZ2h0PSIxMC4yIi8+JiN4YTsJCTwvZz4mI3hhOwkJPGcgaWQ9InNoYXBlNTIxNS0xMyIgdHJhbnNmb3JtPSJ0cmFuc2xhdGUoMCwtMC41ODI2MDUpIj4mI3hhOwkJCTx0aXRsZSBpZD0idGl0bGU1ODA3NyI+U2hlZXQuNTIxNTwvdGl0bGU+JiN4YTsJCQk8cGF0aCBpZD0icGF0aDU4MDc5IiBpbmtzY2FwZTpjb25uZWN0b3ItY3VydmF0dXJlPSIwIiBzdHlsZT0iZmlsbDojRkZGRkZGO2ZpbGwtb3BhY2l0eTowLjI7IiBkPSJNMy4wMSwxNS44OCAgICAgQzEuMzUsMTUuODgsMCwxNy4xOSwwLDE4Ljh2MTAuNjN2NC44MXY0MC43OWMwLDEuNiwxLjM1LDIuOTIsMy4wMSwyLjkyaDMuM2w1OS4yNC02Mi4wN0gzLjAxeiIvPiYjeGE7CQk8L2c+JiN4YTsJPC9nPiYjeGE7PC9nPiYjeGE7PC9zdmc+;fontSize=25;" vertex="1" parent="1">
          <mxGeometry x="101.99999999999994" y="225.75" width="75" height="63" as="geometry" />
        </mxCell>
        <mxCell id="KRbH5QjJdrwvxZO4buaG-14" value="" style="curved=1;endArrow=classic;html=1;rounded=0;entryX=0.976;entryY=0.596;entryDx=0;entryDy=0;exitX=0.436;exitY=0;exitDx=0;exitDy=0;strokeWidth=5;entryPerimeter=0;exitPerimeter=0;fillColor=#d5e8d4;strokeColor=#82b366;" edge="1" parent="1" source="KRbH5QjJdrwvxZO4buaG-1" target="KRbH5QjJdrwvxZO4buaG-9">
          <mxGeometry width="50" height="50" relative="1" as="geometry">
            <mxPoint x="400" y="210" as="sourcePoint" />
            <mxPoint x="450" y="160" as="targetPoint" />
            <Array as="points">
              <mxPoint x="300" y="170" />
              <mxPoint x="240" y="150" />
            </Array>
          </mxGeometry>
        </mxCell>
        <mxCell id="KRbH5QjJdrwvxZO4buaG-15" value="" style="curved=1;endArrow=classic;html=1;rounded=0;entryX=1;entryY=0.5;entryDx=0;entryDy=0;exitX=0;exitY=0.5;exitDx=0;exitDy=0;strokeWidth=5;fillColor=#d5e8d4;strokeColor=#82b366;" edge="1" parent="1" source="KRbH5QjJdrwvxZO4buaG-1" target="KRbH5QjJdrwvxZO4buaG-12">
          <mxGeometry width="50" height="50" relative="1" as="geometry">
            <mxPoint x="210" y="330" as="sourcePoint" />
            <mxPoint x="260" y="280" as="targetPoint" />
            <Array as="points">
              <mxPoint x="270" y="250" />
              <mxPoint x="220" y="290" />
            </Array>
          </mxGeometry>
        </mxCell>
        <mxCell id="KRbH5QjJdrwvxZO4buaG-17" value="" style="curved=1;endArrow=classic;html=1;rounded=0;exitX=0.97;exitY=0.14;exitDx=0;exitDy=0;exitPerimeter=0;entryX=0;entryY=1;entryDx=0;entryDy=0;strokeWidth=5;fillColor=#d5e8d4;strokeColor=#82b366;" edge="1" parent="1" source="KRbH5QjJdrwvxZO4buaG-2" target="KRbH5QjJdrwvxZO4buaG-1">
          <mxGeometry width="50" height="50" relative="1" as="geometry">
            <mxPoint x="390" y="330" as="sourcePoint" />
            <mxPoint x="440" y="280" as="targetPoint" />
            <Array as="points">
              <mxPoint x="250" y="380" />
              <mxPoint x="260" y="310" />
            </Array>
          </mxGeometry>
        </mxCell>
        <mxCell id="KRbH5QjJdrwvxZO4buaG-18" value="" style="curved=1;endArrow=classic;html=1;rounded=0;entryX=0;entryY=0;entryDx=0;entryDy=0;exitX=1;exitY=1;exitDx=0;exitDy=0;strokeWidth=5;fillColor=#d5e8d4;strokeColor=#82b366;" edge="1" parent="1" source="KRbH5QjJdrwvxZO4buaG-1" target="KRbH5QjJdrwvxZO4buaG-4">
          <mxGeometry width="50" height="50" relative="1" as="geometry">
            <mxPoint x="390" y="330" as="sourcePoint" />
            <mxPoint x="440" y="280" as="targetPoint" />
            <Array as="points">
              <mxPoint x="430" y="300" />
              <mxPoint x="450" y="320" />
            </Array>
          </mxGeometry>
        </mxCell>
        <mxCell id="KRbH5QjJdrwvxZO4buaG-19" value="" style="curved=1;endArrow=classic;html=1;rounded=0;entryX=-0.014;entryY=0.546;entryDx=0;entryDy=0;entryPerimeter=0;exitX=1;exitY=0.25;exitDx=0;exitDy=0;strokeWidth=5;fillColor=#d5e8d4;strokeColor=#82b366;" edge="1" parent="1" source="KRbH5QjJdrwvxZO4buaG-1" target="KRbH5QjJdrwvxZO4buaG-3">
          <mxGeometry width="50" height="50" relative="1" as="geometry">
            <mxPoint x="390" y="330" as="sourcePoint" />
            <mxPoint x="440" y="280" as="targetPoint" />
            <Array as="points">
              <mxPoint x="390" y="210" />
              <mxPoint x="410" y="180" />
              <mxPoint x="430" y="160" />
            </Array>
          </mxGeometry>
        </mxCell>
      </root>
    </mxGraphModel>
  </diagram>
</mxfile>
